<?xml version="1.0" encoding="UTF-8"?>
<svg id="Layer_1" data-name="Layer 1" xmlns="http://www.w3.org/2000/svg" xmlns:xlink="http://www.w3.org/1999/xlink" viewBox="0 0 176.9 60">
  <defs>
    <style>
      .cls-1 {
        fill: #fff;
      }

      .cls-2 {
        fill: url(#New_Gradient_Swatch_1);
      }

      .cls-3 {
        fill: url(#New_Gradient_Swatch_1-2);
      }
    </style>
    <linearGradient id="New_Gradient_Swatch_1" data-name="New Gradient Swatch 1" x1="113.61" y1="48.84" x2="125.38" y2="48.84" gradientUnits="userSpaceOnUse">
      <stop offset="0" stop-color="#595959"/>
      <stop offset=".16" stop-color="#858585"/>
      <stop offset=".34" stop-color="#b0b0b0"/>
      <stop offset=".51" stop-color="#d2d2d2"/>
      <stop offset=".67" stop-color="#ebebeb"/>
      <stop offset=".82" stop-color="#f9f9f9"/>
      <stop offset=".95" stop-color="#fff"/>
    </linearGradient>
    <linearGradient id="New_Gradient_Swatch_1-2" data-name="New Gradient Swatch 1" x1="89.65" y1="32.76" x2="89.65" y2="0" xlink:href="#New_Gradient_Swatch_1"/>
  </defs>
  <g>
    <path class="cls-1" d="M110.92,37.81c.32,0,.46,.14,.46,.43v2.36c0,.29-.14,.43-.46,.43h-10.66v6.45h9.74c.29,0,.43,.14,.43,.43v2.28c0,.29-.14,.43-.43,.43h-9.74v5.99h10.66c.32,0,.46,.14,.46,.43v2.36c0,.29-.14,.43-.46,.43h-13.95c-.29,0-.43-.14-.43-.43v-21.18c0-.29,.14-.43,.43-.43h13.95Z"/>
    <path class="cls-1" d="M137.12,37.81c.49,0,.58,.2,.32,.63l-6.66,9.94,7.26,10.83c.29,.43,.17,.63-.32,.63h-3.11c-.32,0-.58-.14-.78-.46l-5.24-8.01-5.22,8.01c-.2,.32-.46,.46-.78,.46h-3.11c-.49,0-.6-.2-.32-.63l7.26-10.83-6.66-9.94c-.26-.43-.17-.63,.32-.63h3.11c.32,0,.58,.14,.78,.46l4.61,7.12,4.64-7.12c.2-.32,.46-.46,.78-.46h3.11Z"/>
    <path class="cls-2" d="M125.38,48.39l-7.4,11.01c-.2,.32-.46,.46-.78,.46h-3.11c-.49,0-.6-.2-.32-.63l7.26-10.83-6.66-9.94c-.26-.43-.17-.63,.32-.63h3.11c.32,0,.58,.14,.78,.46l6.8,10.11Z"/>
    <path class="cls-1" d="M154.55,39.11c1.21,.95,1.82,2.88,1.82,5.73,0,2.42-.37,3.95-1.15,5.01-.37,.52-.95,.92-1.67,1.21-1.41,.55-3,.69-5.73,.69h-3.6v7.66c0,.35-.09,.43-.43,.43h-2.85c-.35,0-.43-.09-.43-.43v-21.12c0-.32,.09-.37,.43-.4,2.05-.14,4.35-.23,6.89-.23,3.28,0,5.53,.49,6.74,1.44Zm-10.34,1.79v7.89h3.26c2.28,0,3.2-.06,4.09-.6,.89-.58,1.07-1.44,1.07-3.26,0-1.7-.35-2.8-1.01-3.28-.66-.49-2.05-.75-4.15-.75h-3.26Z"/>
    <path class="cls-1" d="M175.06,40.06c1.41,1.76,1.84,4.35,1.84,8.82s-.43,7-1.84,8.76c-1.38,1.76-3.52,2.36-7.2,2.36s-5.79-.6-7.2-2.36c-1.41-1.76-1.84-4.35-1.84-8.76s.43-7.06,1.84-8.82c1.41-1.82,3.54-2.39,7.2-2.39s5.82,.58,7.2,2.39Zm-11.5,15.13c.66,1.07,2.1,1.58,4.29,1.58s3.63-.52,4.29-1.58c.69-1.07,1.04-3.17,1.04-6.31s-.35-5.27-1.04-6.34c-.66-1.1-2.1-1.64-4.29-1.64s-3.63,.55-4.29,1.64c-.66,1.07-1.01,3.2-1.01,6.34s.35,5.24,1.01,6.31Z"/>
  </g>
  <g>
    <path class="cls-1" d="M19.16,1.48c.78,.53,1.44,1.89,2.06,4.11l7.24,26.5c.08,.45-.08,.66-.54,.66h-5.27c-.33,0-.41-.12-.53-.66l-2.35-8.56H8.74l-2.39,8.56c-.12,.53-.21,.66-.58,.66H.56c-.45,0-.62-.21-.53-.66L7.39,5.6c.62-2.22,1.28-3.58,2.06-4.11,.78-.53,2.35-.82,4.77-.82s4.16,.29,4.94,.82Zm-5.97,5.8l-3,10.91h8.15l-2.96-10.91c-.29-.99-.29-1.19-1.15-1.19-.66,0-.74,.16-1.03,1.19Z"/>
    <path class="cls-1" d="M60.56,1.11c.45,.08,.66,.33,.66,.78v3.42c0,.45-.25,.66-.7,.66h-2.63c-1.69,0-2.3,.29-2.3,1.6v2.18h14.44c.41,0,.62,.21,.62,.66v21.69c0,.45-.21,.66-.62,.66h-4.86c-.41,0-.62-.21-.62-.66V14.49h-8.97v17.61c0,.45-.21,.66-.62,.66h-4.9c-.41,0-.62-.21-.62-.66V14.49h-10.29v17.61c0,.45-.21,.66-.62,.66h-4.86c-.41,0-.62-.21-.62-.66V14.49h-2.67c-.45,0-.7-.21-.7-.62v-3.5c0-.41,.25-.62,.7-.62h2.67v-3.25c0-2.47,.78-4.07,2.26-4.86,1.48-.78,2.84-.95,4.98-.95,1.23,0,2.59,.12,4.03,.41,.45,.08,.66,.33,.66,.78v3.42c0,.45-.25,.66-.7,.66h-2.84c-1.69,0-2.3,.29-2.3,1.6v2.18h10.29v-3.25c0-2.47,.78-4.07,2.26-4.86,1.48-.78,2.84-.95,4.98-.95,1.03,0,2.3,.12,3.87,.41Zm10.62,2.18c0,2.1-1.28,3.33-3.54,3.33s-3.62-1.23-3.62-3.33,1.32-3.29,3.62-3.29,3.54,1.19,3.54,3.29Z"/>
    <path class="cls-1" d="M81.05,.91c.41,0,.62,.21,.62,.62v30.58c0,.45-.21,.66-.62,.66h-4.86c-.41,0-.62-.21-.62-.66V1.52c0-.41,.21-.62,.62-.62h4.86Z"/>
    <path class="cls-3" d="M93.23,3.29c0,2.1-1.28,3.33-3.54,3.33s-3.62-1.23-3.62-3.33,1.32-3.29,3.62-3.29,3.54,1.19,3.54,3.29Zm-1.15,6.42c.41,0,.62,.21,.62,.62v21.77c0,.45-.21,.66-.62,.66h-4.86c-.41,0-.62-.21-.62-.66V10.33c0-.41,.21-.62,.62-.62h4.86Z"/>
    <path class="cls-1" d="M114.01,11.23c1.4,1.15,2.1,2.92,2.1,5.35v14.24c0,.66-.29,1.07-.91,1.28-2.51,.58-5.64,.86-9.34,.86-3.46,0-5.18-.16-7-1.11-1.77-.99-2.47-2.84-2.51-6.01,.04-2.63,.7-4.4,2.02-5.35,1.36-.95,3.5-1.4,6.42-1.4h5.23v-1.48c0-1.89-1.28-2.84-3.87-2.84h-7.45c-.45,0-.58-.12-.58-.62v-3.37c0-.45,.12-.54,.58-.66,2.1-.41,4.57-.62,7.45-.62,3.83,0,6.46,.58,7.86,1.73Zm-3.99,11.81h-4.73c-2.14,0-2.88,.66-2.88,2.47,0,1.93,.86,2.51,3.5,2.51,1.77,0,3.13-.12,4.12-.41v-4.57Z"/>
    <path class="cls-1" d="M127.43,3.33c.45-.12,.66,.08,.66,.62v5.88h3.79c.45,0,.7,.21,.7,.62v3.29c0,.41-.25,.62-.7,.62h-3.79v11.23c0,1.69,.58,2.1,2.43,2.1h1.69c.45,0,.7,.21,.7,.62v3.5c0,.45-.21,.7-.66,.78-1.23,.25-2.39,.37-3.5,.37-1.77,0-2.51,0-3.87-.37-1.93-.53-2.72-1.81-2.88-4.94V14.36h-2.43c-.45,0-.66-.21-.66-.62v-3.29c0-.41,.21-.62,.66-.62h2.43V5.27c0-.37,.21-.58,.58-.66l4.86-1.28Z"/>
    <path class="cls-1" d="M153.89,11.81c1.36,1.52,2.02,4.57,2.06,9.14v1.28c0,.82-.29,1.11-1.32,1.11h-12.92c.04,1.81,.33,3,.95,3.54,.62,.53,1.85,.82,3.7,.82h7.28c.41,0,.62,.21,.62,.62v3.42c0,.37-.21,.62-.58,.66-1.85,.37-4.44,.58-7.86,.58-4.16,0-6.91-.78-8.27-2.35-1.36-1.56-2.06-4.69-2.06-9.38s.7-7.86,2.06-9.38c1.36-1.56,4.12-2.35,8.27-2.35s6.75,.78,8.07,2.3Zm-12.22,7.53h8.15c-.04-3.58-.99-4.57-3.99-4.57s-4.12,.99-4.16,4.57Z"/>
    <path class="cls-1" d="M175.12,10.04c.45,.12,.66,.33,.66,.66v3.13c0,.45-.25,.66-.7,.66h-7.41c-1.6,0-2.43,.49-2.43,1.48v.41c0,.78,.66,1.44,1.98,1.89l5.27,1.85c3.29,1.15,4.32,3.09,4.32,6.17v.66c0,4.49-3.04,6.01-8.77,6.01-3.04,0-5.88-.12-8.52-.41-.45,0-.7-.21-.7-.62v-3.33c0-.41,.25-.62,.7-.62h8.44c2.18,0,2.84-.29,2.84-1.4v-.37c0-.82-.49-1.32-2.26-1.93l-5.06-1.81c-2.8-.95-4.2-3.05-4.2-6.25v-.78c0-4.24,3.13-5.93,9.34-5.93,2.26,0,4.44,.16,6.5,.53Z"/>
  </g>
</svg>