<?xml version="1.0" encoding="UTF-8"?>
<svg id="Layer_1" data-name="Layer 1" xmlns="http://www.w3.org/2000/svg" xmlns:xlink="http://www.w3.org/1999/xlink" viewBox="0 0 176.9 60">
  <defs>
    <style>
      .cls-1 {
        fill: #fff;
      }

      .cls-2 {
        fill: url(#New_Gradient_Swatch_1);
      }
    </style>
    <linearGradient id="New_Gradient_Swatch_1" data-name="New Gradient Swatch 1" x1="113.61" y1="48.84" x2="125.38" y2="48.84" gradientUnits="userSpaceOnUse">
      <stop offset="0" stop-color="#595959"/>
      <stop offset=".16" stop-color="#858585"/>
      <stop offset=".34" stop-color="#b0b0b0"/>
      <stop offset=".51" stop-color="#d2d2d2"/>
      <stop offset=".67" stop-color="#ebebeb"/>
      <stop offset=".82" stop-color="#f9f9f9"/>
      <stop offset=".95" stop-color="#fff"/>
    </linearGradient>
  </defs>
  <g>
    <path class="cls-1" d="M110.92,37.81c.32,0,.46,.14,.46,.43v2.36c0,.29-.14,.43-.46,.43h-10.66v6.45h9.74c.29,0,.43,.14,.43,.43v2.28c0,.29-.14,.43-.43,.43h-9.74v5.99h10.66c.32,0,.46,.14,.46,.43v2.36c0,.29-.14,.43-.46,.43h-13.95c-.29,0-.43-.14-.43-.43v-21.18c0-.29,.14-.43,.43-.43h13.95Z"/>
    <path class="cls-1" d="M137.12,37.81c.49,0,.58,.2,.32,.63l-6.66,9.94,7.26,10.83c.29,.43,.17,.63-.32,.63h-3.11c-.32,0-.58-.14-.78-.46l-5.24-8.01-5.22,8.01c-.2,.32-.46,.46-.78,.46h-3.11c-.49,0-.6-.2-.32-.63l7.26-10.83-6.66-9.94c-.26-.43-.17-.63,.32-.63h3.11c.32,0,.58,.14,.78,.46l4.61,7.12,4.64-7.12c.2-.32,.46-.46,.78-.46h3.11Z"/>
    <path class="cls-2" d="M125.38,48.39l-7.4,11.01c-.2,.32-.46,.46-.78,.46h-3.11c-.49,0-.6-.2-.32-.63l7.26-10.83-6.66-9.94c-.26-.43-.17-.63,.32-.63h3.11c.32,0,.58,.14,.78,.46l6.8,10.11Z"/>
    <path class="cls-1" d="M154.55,39.11c1.21,.95,1.82,2.88,1.82,5.73,0,2.42-.37,3.95-1.15,5.01-.37,.52-.95,.92-1.67,1.21-1.41,.55-3,.69-5.73,.69h-3.6v7.66c0,.35-.09,.43-.43,.43h-2.85c-.35,0-.43-.09-.43-.43v-21.12c0-.32,.09-.37,.43-.4,2.05-.14,4.35-.23,6.89-.23,3.28,0,5.53,.49,6.74,1.44Zm-10.34,1.79v7.89h3.26c2.28,0,3.2-.06,4.09-.6,.89-.58,1.07-1.44,1.07-3.26,0-1.7-.35-2.8-1.01-3.28-.66-.49-2.05-.75-4.15-.75h-3.26Z"/>
    <path class="cls-1" d="M175.06,40.06c1.41,1.76,1.84,4.35,1.84,8.82s-.43,7-1.84,8.76c-1.38,1.76-3.52,2.36-7.2,2.36s-5.79-.6-7.2-2.36c-1.41-1.76-1.84-4.35-1.84-8.76s.43-7.06,1.84-8.82c1.41-1.82,3.54-2.39,7.2-2.39s5.82,.58,7.2,2.39Zm-11.5,15.13c.66,1.07,2.1,1.58,4.29,1.58s3.63-.52,4.29-1.58c.69-1.07,1.04-3.17,1.04-6.31s-.35-5.27-1.04-6.34c-.66-1.1-2.1-1.64-4.29-1.64s-3.63,.55-4.29,1.64c-.66,1.07-1.01,3.2-1.01,6.34s.35,5.24,1.01,6.31Z"/>
  </g>
  <g>
    <path class="cls-1" d="M41.47,2.64c1.55,1.37,2.3,3.82,2.3,7.38s-.76,5.87-2.23,7.09c-1.48,1.19-4.21,1.8-8.21,1.8h-4.43v9.47c0,.47-.11,.58-.54,.58h-5.58c-.43,0-.54-.11-.54-.58V1.49c0-.32,.18-.47,.54-.5,3.53-.29,7.06-.43,10.55-.43,3.89,0,6.59,.68,8.13,2.09Zm-12.56,3.71v7.59h3.71c1.73,0,2.88-.25,3.49-.72,.61-.5,.9-1.51,.9-2.99,0-2.99-.97-3.89-4.39-3.89h-3.71Z"/>
    <path class="cls-1" d="M62.85,14.84v12.38c0,.61-.29,1.01-.86,1.15-2.48,.5-5.22,.76-8.28,.76-1.33,0-2.38-.04-3.17-.11-.76-.04-1.58-.18-2.41-.4-2.34-.72-3.17-2.27-3.38-5.94,.04-2.41,.65-4.03,1.87-4.82,1.22-.83,3.2-1.22,5.98-1.22l3.96-.04v-.72c0-1.4-.9-2.12-2.74-2.12h-7.05c-.32,0-.47-.18-.47-.54v-3.67c0-.32,.14-.5,.47-.58,1.98-.4,4.32-.61,7.05-.61,7.88,.04,9.04,2.63,9.04,6.48Zm-6.3,5.54h-3.35c-1.73,0-2.27,.54-2.27,1.87,0,1.44,.58,1.84,2.56,1.84,1.26,0,2.27-.11,3.06-.29v-3.42Z"/>
    <path class="cls-1" d="M84.99,8.54c.36,0,.54,.18,.54,.54V29.2c0,2.05-.14,3.2-.86,4.5-.94,1.84-3.35,2.77-8.21,2.77-3.02,0-5.51-.18-7.45-.58-.32-.07-.47-.25-.47-.58v-3.35c0-.36,.18-.54,.5-.54h6.77c2.74,0,3.46-.54,3.46-2.52v-.25c-1.33,.32-2.77,.47-4.25,.47-3.17,0-5.4-.68-6.7-2.09-1.26-1.4-1.91-3.71-1.91-6.91V9.08c0-.36,.18-.54,.54-.54h5.22c.36,0,.54,.18,.54,.54v9.65c0,2.05,.25,3.42,.76,4.03,.54,.61,1.58,.94,3.2,.94,1.04,0,1.91-.07,2.59-.22V9.08c0-.36,.18-.54,.54-.54h5.18Z"/>
    <path class="cls-1" d="M117.82,15.71v12.67c0,.4-.18,.58-.5,.58h-5.26c-.32,0-.5-.18-.5-.58v-9.32c0-1.76-.07-2.95-.22-3.64-.29-1.4-.83-1.66-2.7-1.66-.72,0-1.48,.07-2.27,.18,.25,.79,.4,1.84,.4,3.17l-.04,11.27c0,.4-.18,.58-.5,.58h-5.25c-.32,0-.5-.18-.5-.58v-11.09c-.04-1.62-.22-2.59-.54-2.95-.32-.4-1.12-.58-2.38-.58h-1.87v14.61c0,.4-.18,.58-.54,.58h-5.22c-.32,0-.5-.18-.54-.58V9.55c0-.29,.18-.47,.5-.54,1.73-.43,4.18-.65,7.31-.65,2.88,0,5.11,.4,6.7,1.19,1.98-.79,4.14-1.19,6.48-1.19,5.44,0,7.49,1.98,7.45,7.34Z"/>
    <path class="cls-1" d="M137.8,10.41c1.26,1.37,1.87,4.1,1.87,8.24v1.12c0,.76-.25,.97-1.08,.97h-11.23c.04,1.26,.29,2.09,.76,2.45,.5,.36,1.51,.54,2.99,.54h6.62c.36,0,.54,.18,.54,.54v3.67c0,.32-.18,.54-.5,.61-1.8,.4-4.25,.58-7.34,.58-3.78,0-6.3-.68-7.56-2.05-1.26-1.4-1.91-4.18-1.91-8.31s.65-6.95,1.91-8.31c1.26-1.4,3.78-2.09,7.56-2.09s6.16,.68,7.38,2.05Zm-10.47,6.52h6.05c0-2.41-.79-3.17-2.95-3.17s-3.1,.76-3.1,3.17Z"/>
    <path class="cls-1" d="M159.4,10.05c1.4,1.33,1.76,3.31,1.76,7.06v11.27c0,.4-.18,.58-.54,.58h-5.22c-.32,0-.5-.18-.5-.58v-9.32c0-2.7,0-3.67-.58-4.5-.58-.83-1.19-.79-2.95-.79h-2.41v14.61c0,.4-.18,.58-.54,.58h-5.29c-.32,0-.5-.18-.5-.58V9.55c0-.43,.18-.47,.5-.54,1.76-.43,4.86-.65,9.21-.65,3.71,0,5.65,.36,7.06,1.69Z"/>
    <path class="cls-1" d="M171.68,2.93c.32-.11,.54,.14,.54,.58v5.18h3.1c.4,0,.61,.18,.61,.54v3.49c0,.4-.22,.58-.61,.58h-3.1v8.64c0,1.48,.5,1.8,2.05,1.8h1.37c.4,0,.61,.18,.61,.54v3.74c0,.4-.22,.65-.61,.72-1.4,.25-2.59,.4-3.56,.4-1.04,0-1.87-.04-2.45-.11-.54-.07-1.15-.25-1.84-.54-1.3-.61-1.84-1.98-1.84-4.28V13.29h-2.16c-.4,0-.61-.18-.61-.58v-3.49c0-.36,.22-.54,.61-.54h2.16v-3.82c0-.29,.18-.47,.5-.58l5.22-1.37Z"/>
  </g>
</svg>